Coordinates
version=1
nRows=14
nColumns=24
inDegrees=yes

Units are S.I. units (second, meters, Newtons, ...)
Angles are in degrees.

endheader
time	pelvis_tilt	pelvis_list	pelvis_rotation	pelvis_tx	pelvis_ty	pelvis_tz	hip_flexion_r	hip_adduction_r	hip_rotation_r	knee_angle_r	ankle_angle_r	subtalar_angle_r	mtp_angle_r	hip_flexion_l	hip_adduction_l	hip_rotation_l	knee_angle_l	ankle_angle_l	subtalar_angle_l	mtp_angle_l	lumbar_extension	lumbar_bending	lumbar_rotation
      5.19000000	     92.05799185	     32.76398669	    -91.63124646	      1.02643517	      0.28348828	      1.07579658	     12.20040752	     -9.09071018	      6.01014436	    -63.46456535	     -8.43073247	      0.00000000	      0.00000000	      9.84642826	     -7.38149655	     -5.48573756	    -70.77733738	    -10.89298986	      0.00000000	      0.00000000	      0.00000000	      0.00000000	      0.00000000
      5.20000000	     92.08113955	     32.78571243	    -91.63974971	      1.02641802	      0.28358028	      1.07583002	     12.22235767	     -9.15430495	      5.97142809	    -63.50758310	     -8.91077526	      0.00000000	      0.00000000	      9.86051304	     -7.34804542	     -5.47791984	    -70.75748786	    -10.89155795	      0.00000000	      0.00000000	      0.00000000	      0.00000000	      0.00000000
      5.21000000	     92.09516241	     32.80008737	    -91.64592349	      1.02643579	      0.28363319	      1.07585612	     12.21725692	     -9.19227964	      5.94408290	    -63.54309103	     -9.05242732	      0.00000000	      0.00000000	      9.87438047	     -7.32871173	     -5.47120896	    -70.74647571	    -10.89101571	      0.00000000	      0.00000000	      0.00000000	      0.00000000	      0.00000000
      5.22000000	     92.09818164	     32.79689442	    -91.65203294	      1.02641370	      0.28364070	      1.07581337	     12.20440890	     -9.20101386	      5.91983661	    -63.56411478	     -8.83583913	      0.00000000	      0.00000000	      9.87485179	     -7.32550861	     -5.46658318	    -70.75033935	    -10.89151221	      0.00000000	      0.00000000	      0.00000000	      0.00000000	      0.00000000
      5.23000000	     92.09256174	     32.77841437	    -91.65586601	      1.02638047	      0.28361131	      1.07573592	     12.18406488	     -9.18058521	      5.90177683	    -63.58420244	     -8.33247704	      0.00000000	      0.00000000	      9.86283186	     -7.33709278	     -5.46374224	    -70.76624370	    -10.89236455	      0.00000000	      0.00000000	      0.00000000	      0.00000000	      0.00000000
      5.24000000	     92.08290716	     32.75815425	    -91.65241465	      1.02644053	      0.28355168	      1.07572125	     12.13972390	     -9.13583123	      5.90254133	    -63.62764939	     -7.67710553	      0.00000000	      0.00000000	      9.85222339	     -7.35943745	     -5.46116644	    -70.78421809	    -10.89236688	      0.00000000	      0.00000000	      0.00000000	      0.00000000	      0.00000000
      5.25000000	     92.07207568	     32.75646790	    -91.64013055	      1.02657711	      0.28347012	      1.07578172	     12.05224392	     -9.07769010	      5.93256408	    -63.71261595	     -7.02929099	      0.00000000	      0.00000000	      9.85899224	     -7.38667982	     -5.45696319	    -70.79355643	    -10.89052816	      0.00000000	      0.00000000	      0.00000000	      0.00000000	      0.00000000
      5.26000000	     92.06070630	     32.78508915	    -91.62379562	      1.02661141	      0.28339071	      1.07580792	     11.92594669	     -9.02126935	      5.98697077	    -63.83287814	     -6.53601037	      0.00000000	      0.00000000	      9.88650725	     -7.41214126	     -5.45010639	    -70.79043797	    -10.88684083	      0.00000000	      0.00000000	      0.00000000	      0.00000000	      0.00000000
      5.27000000	     92.05108317	     32.82733291	    -91.61000110	      1.02648058	      0.28334103	      1.07574750	     11.80849117	     -8.98042325	      6.04258440	    -63.95015046	     -6.30146764	      0.00000000	      0.00000000	      9.91909155	     -7.42981001	     -5.44120508	    -70.78103095	    -10.88243790	      0.00000000	      0.00000000	      0.00000000	      0.00000000	      0.00000000
      5.28000000	     92.04838558	     32.84563842	    -91.60246738	      1.02637711	      0.28333354	      1.07569905	     11.76820913	     -8.96302597	      6.06979331	    -64.01452777	     -6.36653485	      0.00000000	      0.00000000	      9.93267461	     -7.43594355	     -5.43237575	    -70.77623749	    -10.87877104	      0.00000000	      0.00000000	      0.00000000	      0.00000000	      0.00000000
      5.29000000	     92.05559192	     32.82056696	    -91.60306377	      1.02645190	      0.28336426	      1.07574250	     11.83474905	     -8.97046458	      6.05144150	    -64.00459586	     -6.70020519	      0.00000000	      0.00000000	      9.91541463	     -7.42999298	     -5.42631022	    -70.78188585	    -10.87636193	      0.00000000	      0.00000000	      0.00000000	      0.00000000	      0.00000000
      5.30000000	     92.06929410	     32.77351234	    -91.61326920	      1.02657894	      0.28341770	      1.07581022	     11.96809883	     -8.99942794	      5.99362299	    -63.94612497	     -7.20670965	      0.00000000	      0.00000000	      9.87849174	     -7.41442310	     -5.42489879	    -70.79377025	    -10.87431169	      0.00000000	      0.00000000	      0.00000000	      0.00000000	      0.00000000
      5.31000000	     92.08327648	     32.74253089	    -91.63153948	      1.02656718	      0.28347838	      1.07580443	     12.09468964	     -9.04242459	      5.91981583	    -63.88690808	     -7.75045353	      0.00000000	      0.00000000	      9.84602109	     -7.39356313	     -5.42812371	    -70.80240737	    -10.87116610	      0.00000000	      0.00000000	      0.00000000	      0.00000000	      0.00000000
      5.32000000	     92.09510028	     32.74312986	    -91.65138510	      1.02645470	      0.28354503	      1.07575299	     12.16877026	     -9.08811680	      5.85448991	    -63.85570957	     -8.19491537	      0.00000000	      0.00000000	      9.83487972	     -7.37200660	     -5.43395067	    -70.80212988	    -10.86643209	      0.00000000	      0.00000000	      0.00000000	      0.00000000	      0.00000000
